<?xml version="1.0" standalone="no"?>
<!DOCTYPE svg PUBLIC "-//W3C//DTD SVG 20010904//EN"
 "http://www.w3.org/TR/2001/REC-SVG-20010904/DTD/svg10.dtd">
<svg version="1.0" xmlns="http://www.w3.org/2000/svg"
 width="96.000000pt" height="96.000000pt" viewBox="0 0 96.000000 96.000000"
 preserveAspectRatio="xMidYMid meet">
<metadata>
Created by potrace 1.14, written by Peter Selinger 2001-2017
</metadata>
<g transform="translate(0.000000,96.000000) scale(0.100000,-0.100000)"
fill="#000000" stroke="none">
<path d="M280 921 c0 -5 -8 -8 -17 -6 -34 5 -93 -38 -149 -107 -13 -17 -28
-51 -26 -60 1 -5 -2 -8 -6 -8 -5 0 -9 -7 -9 -15 0 -8 4 -15 9 -15 5 0 4 -9 -3
-21 -6 -12 -9 -30 -6 -40 3 -10 1 -19 -5 -19 -6 0 -4 -10 4 -22 9 -14 12 -33
8 -48 -10 -40 66 -170 100 -170 5 0 10 -4 10 -9 0 -5 9 -12 20 -16 11 -3 19
-9 18 -13 -1 -4 44 -54 100 -110 56 -57 102 -100 102 -95 1 4 9 -8 19 -27 11
-19 22 -34 26 -32 3 2 15 -7 26 -19 10 -12 19 -19 19 -14 0 4 6 2 13 -4 8 -6
17 -8 20 -4 4 3 7 2 7 -4 0 -5 30 -11 67 -12 37 -1 70 -4 75 -7 4 -3 8 -1 8 4
0 6 7 13 16 16 10 4 13 2 8 -7 -4 -6 2 -4 13 5 11 10 26 18 33 18 14 0 86 70
73 70 -4 0 0 7 11 15 10 7 15 18 12 23 -3 6 -1 12 4 14 6 2 12 19 14 38 2 19
7 43 11 53 4 9 3 17 -1 17 -5 0 -8 28 -7 62 2 67 -19 129 -56 162 -11 10 -18
24 -14 30 3 6 3 8 -2 4 -4 -4 -23 8 -42 27 -19 19 -38 35 -43 35 -6 0 -10 4
-10 9 0 5 -53 62 -118 128 -111 112 -172 163 -172 146 0 -5 -4 -3 -8 3 -4 7
-35 14 -69 17 -35 3 -67 8 -73 12 -5 3 -10 2 -10 -4z m89 -117 c44 -17 96 -77
87 -99 -3 -8 -1 -15 4 -15 6 0 10 -25 10 -55 0 -32 -4 -55 -11 -55 -5 0 -8 -4
-4 -9 8 -14 -27 -80 -43 -81 -7 0 -15 -7 -18 -15 -4 -8 -12 -15 -20 -15 -8 0
-14 -5 -14 -11 0 -7 -4 -8 -12 -2 -7 5 -23 8 -35 7 -12 0 -24 5 -27 13 -3 8
-10 11 -16 8 -5 -3 -10 -1 -10 4 0 6 -7 11 -16 11 -8 0 -12 5 -9 10 3 6 1 10
-6 10 -7 0 -9 3 -6 6 3 4 -3 18 -14 33 -12 15 -16 27 -10 29 8 3 8 10 1 23 -9
15 -8 86 1 97 1 1 2 5 3 10 1 10 66 98 66 90 0 -4 12 0 28 8 33 17 24 17 71
-2z m354 -337 c32 -33 60 -86 53 -103 -3 -7 -2 -14 3 -14 9 0 7 -35 -4 -62 -4
-11 -3 -18 3 -18 17 0 -5 -51 -39 -93 -17 -20 -37 -37 -45 -37 -8 0 -14 -4
-14 -9 0 -10 -19 -9 -37 2 -8 5 -13 4 -13 -3 0 -5 -18 1 -39 16 -41 27 -77 85
-67 110 3 8 1 14 -4 14 -5 0 -7 24 -4 53 3 28 5 59 6 67 1 8 5 19 10 25 55 70
62 76 80 72 10 -3 18 -1 18 3 0 17 72 -1 93 -23z"/>
<path d="M317 724 c-4 -4 -7 -20 -7 -36 0 -22 -4 -28 -22 -28 -39 0 -51 -14
-29 -34 14 -12 21 -14 26 -6 10 16 25 -7 25 -37 0 -16 6 -23 21 -23 11 0 17 5
14 10 -3 6 -1 10 5 10 6 0 9 4 6 9 -12 19 5 38 29 33 22 -4 25 -1 23 22 -2 19
-7 25 -18 20 -35 -13 -36 -12 -39 37 0 11 -5 18 -10 15 -5 -4 -11 -1 -13 5 -2
5 -7 7 -11 3z"/>
<path d="M650 391 c0 -7 -4 -9 -10 -6 -6 4 -10 -5 -10 -20 0 -22 -3 -25 -20
-20 -11 3 -24 4 -29 0 -17 -10 0 -35 23 -36 11 0 15 -3 8 -6 -6 -2 -10 -9 -6
-14 3 -5 0 -9 -6 -9 -6 0 -4 -8 5 -17 16 -16 18 -15 37 8 11 13 17 18 13 12
-3 -7 -1 -13 5 -13 6 0 9 -4 6 -8 -2 -4 4 -8 14 -9 11 -1 22 2 25 8 4 5 1 9
-5 9 -6 0 -8 5 -5 10 3 6 2 10 -3 10 -5 0 -9 7 -9 15 0 8 4 12 9 9 4 -3 16 0
25 5 10 6 13 11 6 11 -7 0 -10 9 -8 21 4 21 3 21 -15 4 -10 -9 -24 -14 -30
-10 -8 5 -9 10 -2 14 7 4 5 13 -4 25 -8 11 -14 14 -14 7z"/>
</g>
</svg>
